<?xml version="1.0" encoding="utf-8"?>
<svg version="1.1" xmlns="http://www.w3.org/2000/svg" x="0px" y="0px"
     viewBox="0 0 1920 1080" style="enable-background:new 0 0 1920 1080;" xml:space="preserve">
<style type="text/css">
	.st0{display:none;}
	.st1{display:inline;fill:#0F6FA9;}
	.st2{font-family:'ArialNarrow';}
	.st3{font-size:422.6739px;}
	.st4{display:inline;fill:#136AA0;}
	.st5{font-family:'YouSheBiaoTiHei';}
	.st6{font-size:264.3011px;}
	.st7{fill:#0F6FA9;}
	.st8{fill:#136AA0;}
</style>
<g id="Main" class="st0">
	<path class="st1" d="M572.3,424.1c4.9,20.7,25.6,33.5,46.3,28.6c20.7-4.9,33.5-25.6,28.6-46.3l0,0c-4.9-20.7-25.6-33.5-46.3-28.6
		C580.2,382.7,567.4,403.4,572.3,424.1C572.3,424.1,572.3,424.1,572.3,424.1z"/>
	<path class="st1" d="M679.5,494.8c22.1-19.4,36.1-47.8,36.1-79.5c0-58.3-47.5-105.7-105.7-105.7C551.5,309.6,504,357,504,415.3
		c0,31.1,13.5,59.1,34.9,78.4l5.9-21c-13.5-15.3-21.8-35.4-21.8-57.5c0-47.8,38.9-86.8,86.8-86.8c47.8,0,86.8,38.9,86.8,86.8
		c0,22.6-8.7,43.3-23,58.8L679.5,494.8z"/>
	<path class="st1" d="M522.1,553.8l5.4-19.3c-37.8-26.2-62.6-69.8-62.6-119.2c0-79.9,65-144.8,144.8-144.8s144.8,65,144.8,144.8
		c0,49.8-25.3,93.8-63.6,119.9l5.5,19.2c10.4-6.6,20.2-14.3,29.1-23.2c31-31,48-72.1,48-115.8s-17.1-84.9-48-115.8
		c-31-31-72.1-48-115.8-48s-84.9,17.1-115.8,48c-31,31-48,72.1-48,115.8s17.1,84.9,48,115.8C502.6,539.8,512,547.4,522.1,553.8z"/>
	<path class="st1" d="M542.3,671.4h134.4l27.7,95.1h32.8l-84.9-297.6h-86.8l-83.3,297.6h33L542.3,671.4z M585.2,521.2l4.6-16.4h38.5
		l4.3,14.9l34.3,117.5H552.1L585.2,521.2z"/>
	<text transform="matrix(1 0 0 1 764.9678 767.3906)" class="st1 st2 st3">PRS</text>
	<text transform="matrix(1 0 0 1 870 446.6582)" class="st4 st5 st6">GO!</text>
</g>
<g id="Main_Curve">
	<path class="st7" d="M572.3,424.1c4.9,20.7,25.6,33.5,46.3,28.6c20.7-4.9,33.5-25.6,28.6-46.3l0,0c-4.9-20.7-25.6-33.5-46.3-28.6
		C580.2,382.7,567.4,403.4,572.3,424.1C572.3,424.1,572.3,424.1,572.3,424.1z"/>
	<path class="st7" d="M679.5,494.8c22.1-19.4,36.1-47.8,36.1-79.5c0-58.3-47.5-105.7-105.7-105.7C551.5,309.6,504,357,504,415.3
		c0,31.1,13.5,59.1,34.9,78.4l5.9-21c-13.5-15.3-21.8-35.4-21.8-57.5c0-47.8,38.9-86.8,86.8-86.8c47.8,0,86.8,38.9,86.8,86.8
		c0,22.6-8.7,43.3-23,58.8L679.5,494.8z"/>
	<path class="st7" d="M522.1,553.8l5.4-19.3c-37.8-26.2-62.6-69.8-62.6-119.2c0-79.9,65-144.8,144.8-144.8s144.8,65,144.8,144.8
		c0,49.8-25.3,93.8-63.6,119.9l5.5,19.2c10.4-6.6,20.2-14.3,29.1-23.2c31-31,48-72.1,48-115.8s-17.1-84.9-48-115.8
		c-31-31-72.1-48-115.8-48s-84.9,17.1-115.8,48c-31,31-48,72.1-48,115.8s17.1,84.9,48,115.8C502.6,539.8,512,547.4,522.1,553.8z"/>
	<path class="st7" d="M542.3,671.4h134.4l27.7,95.1h32.8l-84.9-297.6h-86.8l-83.3,297.6h33L542.3,671.4z M585.2,521.2l4.6-16.4h38.5
		l4.3,14.9l34.3,117.5H552.1L585.2,521.2z"/>
	<g>
		<path class="st7" d="M791.6,767.4V464.8h93.5c22,0,38.2,1.9,48.7,5.8c14.3,5.2,25.7,14.9,34.3,29.1c8.5,14.2,12.8,31.6,12.8,52.2
			c0,27.2-6.9,49.5-20.8,66.7c-13.9,17.2-37.9,25.8-72,25.8h-63.6v123H791.6z M824.4,608.7h64.2c20.2,0,35-4.6,44.4-13.7
			c9.4-9.1,14-22.9,14-41.4c0-12-2.3-22.2-6.9-30.8c-4.6-8.5-10.2-14.4-16.7-17.5c-6.5-3.2-18.3-4.7-35.4-4.7h-63.6V608.7z"/>
		<path class="st7" d="M1022.7,767.4V464.8h110c23,0,39.9,2.8,50.9,8.5c10.9,5.6,19.9,15,26.9,28.2c7,13.1,10.5,28.4,10.5,45.7
			c0,22.8-6,41.3-17.9,55.5c-11.9,14.2-29.2,23.2-51.9,27c9.2,5.5,16.2,11.1,21.1,16.8c9.8,11.6,18.4,24.4,25.8,38.6l43.3,82.3
			h-41.3l-33.1-62.9c-12.8-24.6-22.5-41.2-29-49.7c-6.5-8.5-12.9-14.3-19-17.3c-6.1-3-14.7-4.4-25.7-4.4h-37.9v134.4H1022.7z
			 M1055.6,598.4h70.6c15.4,0,27.1-1.9,35.1-5.6c8-3.7,14.3-9.6,19-17.5c4.7-8,7-17.3,7-27.9c0-15.3-4.5-27.3-13.4-36
			c-8.9-8.7-22.2-13.1-39.8-13.1h-78.4V598.4z"/>
		<path class="st7" d="M1261.9,670l31-3.3c1.7,16.6,5.4,29.6,11.2,38.9c5.8,9.3,14.2,16.8,25.1,22.4c10.9,5.6,23.1,8.5,36.7,8.5
			c19.5,0,34.7-4.8,45.5-14.3c10.8-9.5,16.2-21.9,16.2-37.2c0-8.9-2-16.7-5.9-23.4c-3.9-6.7-9.8-12.1-17.7-16.4
			c-7.9-4.3-25-10.3-51.3-18.1c-23.4-6.9-40-13.9-49.9-20.9c-9.9-7-17.6-15.9-23.1-26.7c-5.5-10.8-8.3-23-8.3-36.6
			c0-24.5,7.9-44.5,23.7-60.1c15.8-15.5,37.1-23.3,64-23.3c18.4,0,34.6,3.6,48.4,10.9c13.8,7.3,24.6,17.7,32.2,31.4
			c7.6,13.6,11.7,29.7,12.3,48.1l-31.6,2.9c-1.7-19.7-7.5-34.3-17.6-43.8c-10.1-9.5-24.3-14.2-42.6-14.2c-18.6,0-32.7,4.2-42.5,12.5
			c-9.8,8.3-14.7,19.1-14.7,32.3c0,12.2,3.6,21.7,10.7,28.5c7.2,6.7,23.2,13.6,48.3,20.5c24.5,6.8,41.7,12.7,51.6,17.6
			c15.1,7.7,26.6,17.9,34.3,30.5c7.7,12.6,11.6,27.6,11.6,45c0,17.3-4.1,33.1-12.2,47.3c-8.1,14.2-19.2,25-33.1,32.5
			c-14,7.4-30.8,11.1-50.5,11.1c-30.7,0-55.1-9.2-73.4-27.7C1272.1,726.5,1262.6,701.5,1261.9,670z"/>
	</g>
	<g>
		<path class="st8" d="M1055,324.3h-50.7l2.4-17.7h-60.8l-12.7,98.8H994l2.6-30.4l-15.3-25.4h68.5l-10,81.1H897.5
			c-2.5,0-4.8-0.4-6.9-1.3c-2.1-0.9-3.9-2.1-5.4-3.7c-1.5-1.6-2.5-3.5-3-5.7c-0.5-2.2-0.4-4.5,0.3-7l17.7-131.9H1060L1055,324.3z"/>
		<path class="st8" d="M1244.2,281.2c2.5,0,4.8,0.4,6.9,1.3c2.1,0.9,3.9,2.1,5.4,3.7c1.5,1.6,2.5,3.4,3,5.6c0.5,2.1,0.4,4.5-0.3,7.1
			l-17.7,131.9h-142.2c-2.5,0-4.8-0.4-6.9-1.3c-2.1-0.9-3.9-2.1-5.4-3.7c-1.5-1.6-2.5-3.5-3-5.7c-0.5-2.2-0.4-4.5,0.3-7l17.7-131.9
			H1244.2z M1147.8,306.6l-12.7,98.8h58.4l15.1-98.8H1147.8z"/>
		<path class="st8" d="M1323.8,430.8h-40.2l3.4-25.1h40.2L1323.8,430.8z M1328.6,393.8h-40.2l16.4-112.6h40.2L1328.6,393.8z"/>
	</g>
</g>
</svg>
